Simulation
nRows=23
nColumns=15
endheader
time  TH_x TH_y TH_z SC_y  SC_z  SC_x  AC_y  AC_z  AC_x  GH_y  GH_z  GH_yy  EL_x  PS_y
2.4010000000000002  0.000000  0.000000  0.000000  -37.29316330992637  14.279960965057946  -0.03987130103374497  46.30232900515691  12.006084782766468  5.944362635721325  10.169706383623568  18.863491268711506  8.46053012824654  11.262049094497321  120.000000
2.4490200000000004  0.000000  0.000000  0.000000  -36.31619811141885  14.139619316010613  0.022911263931718714  46.180323639076015  11.447507860346294  5.460516098859965  13.801908352581501  14.317813525842816  9.710949970169791  11.556233287687425  120.000000
2.49704  0.000000  0.000000  0.000000  -35.33333671822689  13.869773854541016  0.19591309628259115  46.27150624424714  10.997454194893091  5.014063975788534  17.964804395985176  10.200190069316383  10.578363536537374  12.097837689331683  120.000000
2.5450600000000003  0.000000  0.000000  0.000000  -34.38038223084498  13.463313784094566  0.4764959605958367  46.6066809614326  10.667044995397703  4.624773695166588  23.49557166748567  6.579504000464718  9.947764648321622  12.901946379369175  120.000000
2.5930800000000005  0.000000  0.000000  0.000000  -33.50209354326145  12.932822180940068  0.8608395854078656  47.18586128150164  10.453660076508323  4.303760471039397  34.30231895603442  3.531109710375161  3.6302662339922604  13.906637158930307  120.000000
2.6411000000000002  0.000000  0.000000  0.000000  -32.75192821028925  12.311701617980676  1.3380948188599766  47.97313897818432  10.350717349696088  4.0512584070801  76.58473992408474  1.433941790357842  -34.81815127051146  15.001323048931235  120.000000
2.6891200000000004  0.000000  0.000000  0.000000  -32.17759965529225  11.647556308557657  1.8834515096044464  48.905923911418284  10.350681165368025  3.8560383807554834  151.533685651087  1.9968145174004548  -106.74640300267572  16.064265048483048  120.000000
2.7371400000000006  0.000000  0.000000  0.000000  -31.80080699403841  10.98588363725362  2.4584690667648217  49.90835342093757  10.43158346427097  3.7039325638878338  168.0405618116636  3.461251752420678  -121.08697919587259  16.996538453501902  120.000000
2.7851600000000003  0.000000  0.000000  0.000000  -31.603191136917257  10.363906542640178  3.0161689111141987  50.909557000461504  10.557281574780689  3.587642063555671  171.50985346044655  4.642740867828456  -123.1810614574048  17.7389333001123  120.000000
2.8331800000000005  0.000000  0.000000  0.000000  -31.53932214752056  9.806910766918786  3.5126410124369714  51.852494880160734  10.693697939485574  3.503854066213055  171.44001978253885  5.453212989173394  -122.39686626773337  18.262281268461518  120.000000
2.8812000000000006  0.000000  0.000000  0.000000  -31.552198253839183  9.332561367495053  3.9109267309549627  52.69447197894174  10.817337162726835  3.4531197453489946  169.89883361465834  5.893249159955448  -120.63133085468986  18.55771459799862  120.000000
2.9292200000000004  0.000000  0.000000  0.000000  -31.59501383806125  8.949132730545509  4.17810636280473  53.4012692832203  10.917453257021927  3.4389546418135413  167.53457270762954  5.97707132190456  -118.35695563401953  18.63094679244895  120.000000
2.9772400000000006  0.000000  0.000000  0.000000  -31.63298369330397  8.651974712670444  4.286298085935514  53.958497962862815  10.988477285812628  3.4620054189125207  164.31128032462888  5.741767210857702  -115.3836634070678  18.510024607006663  120.000000
3.0252600000000003  0.000000  0.000000  0.000000  -31.632162632246654  8.41913895863171  4.217255132301056  54.37575061222967  11.012654467110552  3.5240202911382643  159.5741979801949  5.268971430018159  -110.93638739455673  18.25493500288422  120.000000
3.0732800000000005  0.000000  0.000000  0.000000  -31.56080417238873  8.220550090309919  3.959931570149657  54.677120806622675  10.971518282452486  3.6190150035463304  152.11764180121918  4.685697976334463  -103.73215691439559  17.94377828709888  120.000000
3.1213000000000006  0.000000  0.000000  0.000000  -31.397390706167293  8.035122161299732  3.5108937137830583  54.88272495746445  10.860561497172714  3.7327769598322353  140.5783909457483  4.15432253010889  -92.36737049568947  17.645363387001773  120.000000
3.1693200000000004  0.000000  0.000000  0.000000  -31.1376761978636  7.846414652764079  2.8808979056925104  54.98673599031388  10.687233903863467  3.8571224473398518  124.64594476027203  3.8531655721733604  -76.51503039768387  17.39678159648374  120.000000
3.2173400000000005  0.000000  0.000000  0.000000  -30.789708074800636  7.650932198154169  2.0934567917780966  54.96820157609124  10.471209995052204  3.9856414733207317  106.51161913734003  3.916932472396089  -58.36941251985442  17.193009606172193  120.000000
3.2653600000000003  0.000000  0.000000  0.000000  -30.37161694194986  7.4618355052761025  1.1803707736622955  54.80928177327457  10.24448519967443  4.104923361090708  89.76557211882628  4.35532037299239  -41.54313438078434  16.988227818548314  120.000000
3.3133800000000004  0.000000  0.000000  0.000000  -29.90518750931512  7.29086118259604  0.17676496231770789  54.499441695690265  10.037383569842303  4.20914763533831  76.18102435025337  5.075919616099794  -27.84448578525253  16.715211197153472  120.000000
3.3614000000000006  0.000000  0.000000  0.000000  -29.409145443974207  7.143818513096065  -0.8887360359678893  54.05588531073357  9.873566078632981  4.30833396873742  65.49444856687298  6.002568413462713  -17.059899741078894  16.31934979269182  120.000000
3.4094200000000003  0.000000  0.000000  0.000000  -28.902211521659183  7.024586612349725  -1.991948549258067  53.52071493896527  9.77584391390218  4.4208901668314855  56.88413251680777  7.118248193047611  -8.43450330697146  15.77772935239418  120.000000
3.4574400000000005  0.000000  0.000000  0.000000  -28.4116991711644  6.932870186964934  -3.1025717068974155  52.93915080199545  9.761034379118746  4.56762609397337  49.65507055079212  8.452360122695703  -1.3424057552505806  15.105859388588133  120.000000
